<svg xmlns="http://www.w3.org/2000/svg" xmlns:xlink="http://www.w3.org/1999/xlink" width="300" zoomAndPan="magnify" viewBox="0 0 224.87999 225" height="300" preserveAspectRatio="xMidYMid meet" version="1.0"><defs><clipPath id="02564d4b14"><path d="M 93 152 L 123 152 L 123 175.464844 L 93 175.464844 Z M 93 152 " clip-rule="nonzero"/></clipPath><clipPath id="c0765c2ba4"><path d="M 102 22.546875 L 107 22.546875 L 107 54 L 102 54 Z M 102 22.546875 " clip-rule="nonzero"/></clipPath><clipPath id="ded8384744"><path d="M 34.511719 82 L 66 82 L 66 91 L 34.511719 91 Z M 34.511719 82 " clip-rule="nonzero"/></clipPath><clipPath id="44716d2b9a"><path d="M 152 90 L 185.183594 90 L 185.183594 94 L 152 94 Z M 152 90 " clip-rule="nonzero"/></clipPath></defs><path fill="#347571" d="M 95.414062 153.152344 L 96.59375 155.777344 C 95.839844 156.289062 94.996094 156.710938 94.542969 157.492188 C 94.738281 158.433594 96.324219 158.796875 96.558594 159.78125 C 95.9375 160.347656 94.996094 160.570312 94.40625 161.363281 C 94.898438 162.011719 95.636719 163.027344 96.390625 163.414062 C 95.59375 163.820312 95.390625 164.15625 94.910156 165.164062 C 95.332031 165.5 96.09375 166.351562 96.863281 166.945312 C 97.847656 167.90625 100.257812 170.308594 100.257812 170.308594 C 100.273438 170.417969 100.765625 170.546875 101.4375 170.644531 L 104.027344 173.472656 C 106.339844 174.300781 108.558594 174.359375 111.394531 173.605469 L 114.285156 170.542969 C 114.6875 170.460938 115.074219 170.386719 115.363281 170.273438 C 116.945312 169.144531 117.441406 168.3125 118.894531 166.777344 C 119.40625 166.371094 120.128906 164.886719 120.441406 164.421875 C 119.863281 163.546875 119.859375 163.574219 119.230469 163.078125 C 119.628906 162.488281 120.886719 162.207031 121.082031 161.160156 L 119.199219 159.644531 C 119.429688 158.765625 120.773438 158.273438 121.015625 157.390625 C 120.78125 156.628906 119.691406 156.210938 119.164062 155.644531 L 119.835938 153.152344 Z M 95.414062 153.152344 " fill-opacity="1" fill-rule="nonzero"/><g clip-path="url(#02564d4b14)"><path stroke-linecap="round" transform="matrix(1.11448, 0, 0, 1.11448, -163.656318, -496.086486)" fill="none" stroke-linejoin="round" d="M 232.458514 582.548623 L 233.517023 584.903981 C 232.840559 585.363136 232.083479 585.741675 231.6769 586.442675 C 231.852149 587.287379 233.275178 587.613344 233.485478 588.496604 C 232.928184 589.004828 232.083479 589.204613 231.554225 589.916128 C 231.995854 590.497957 232.658299 591.409257 233.334763 591.756251 C 232.619744 592.120771 232.437484 592.422201 232.006369 593.32649 C 232.384909 593.62792 233.068384 594.39201 233.758868 594.924769 C 234.642128 595.786999 236.804711 597.942572 236.804711 597.942572 C 236.818731 598.040712 237.260361 598.156377 237.86322 598.244002 L 240.187034 600.78162 C 242.261992 601.52468 244.252831 601.577255 246.797459 600.90079 L 249.391158 598.152872 C 249.752172 598.079267 250.099167 598.012672 250.358537 597.911027 C 251.778061 596.898083 252.223196 596.151518 253.527055 594.774054 C 253.986209 594.409535 254.634634 593.077635 254.915034 592.660541 C 254.396294 591.875421 254.392789 591.899956 253.828485 591.454822 C 254.185994 590.925567 255.314604 590.673207 255.489853 589.733868 L 253.800445 588.373929 C 254.007239 587.585304 255.212959 587.143674 255.430268 586.351545 C 255.219969 585.66807 254.242074 585.293036 253.7689 584.784811 L 254.371759 582.548623 Z M 232.458514 582.548623 " stroke="#000000" stroke-width="2" stroke-opacity="1" stroke-miterlimit="4"/></g><path stroke-linecap="round" transform="matrix(1.11448, 0, 0, 1.11448, -163.656318, -496.086486)" fill-opacity="1" fill="#347571" fill-rule="nonzero" stroke-linejoin="round" d="M 243.061132 502.221087 C 226.528058 502.221087 212.210143 516.072838 213.124947 533.107126 C 212.634247 537.544453 218.242244 548.217171 223.215835 554.207212 C 229.959451 566.334504 230.60437 567.782068 231.049505 581.016939 C 231.392995 582.597693 232.195639 583.084887 233.019314 583.267147 C 241.697688 584.956556 248.406253 584.003197 253.576125 583.365287 C 254.816894 582.948192 255.566963 582.163073 255.479338 581.080029 C 255.977048 563.102896 258.724966 564.196455 266.972226 550.365734 C 271.539238 544.123334 273.225141 534.929725 273.267201 530.657133 C 273.754396 506.851189 251.946301 502.476952 243.057627 502.217582 Z M 243.061132 502.221087 " stroke="#000000" stroke-width="2" stroke-opacity="1" stroke-miterlimit="4"/><path fill="#347571" d="M 104.898438 23.664062 L 103.785156 52.640625 " fill-opacity="1" fill-rule="nonzero"/><g clip-path="url(#c0765c2ba4)"><path stroke-linecap="round" transform="matrix(1.11448, 0, 0, 1.11448, -163.656318, -496.086486)" fill="none" stroke-linejoin="round" d="M 240.968648 466.361456 L 239.969724 492.361529 " stroke="#000000" stroke-width="2" stroke-opacity="1" stroke-miterlimit="4"/></g><path stroke-linecap="round" transform="matrix(1.11448, 0, 0, 1.11448, -163.656318, -496.086486)" fill-opacity="1" fill="#347571" fill-rule="nonzero" stroke-linejoin="round" d="M 195.971489 481.359341 L 213.969652 503.360211 " stroke="#000000" stroke-width="2" stroke-opacity="1" stroke-miterlimit="4"/><path fill="#347571" d="M 35.800781 83.84375 L 64.777344 89.417969 " fill-opacity="1" fill-rule="nonzero"/><g clip-path="url(#ded8384744)"><path stroke-linecap="round" transform="matrix(1.11448, 0, 0, 1.11448, -163.656318, -496.086486)" fill="none" stroke-linejoin="round" d="M 178.968745 520.35945 L 204.968818 525.361081 " stroke="#000000" stroke-width="2" stroke-opacity="1" stroke-miterlimit="4"/></g><path stroke-linecap="round" transform="matrix(1.11448, 0, 0, 1.11448, -163.656318, -496.086486)" fill-opacity="1" fill="#347571" fill-rule="nonzero" stroke-linejoin="round" d="M 269.968999 504.359135 L 284.970388 476.361214 " stroke="#000000" stroke-width="2" stroke-opacity="1" stroke-miterlimit="4"/><path fill="#347571" d="M 153.9375 92.761719 L 184.027344 91.644531 " fill-opacity="1" fill-rule="nonzero"/><g clip-path="url(#44716d2b9a)"><path stroke-linecap="round" transform="matrix(1.11448, 0, 0, 1.11448, -163.656318, -496.086486)" fill="none" stroke-linejoin="round" d="M 284.970388 528.361359 L 311.969385 527.35893 " stroke="#000000" stroke-width="2" stroke-opacity="1" stroke-miterlimit="4"/></g><path stroke-linecap="round" transform="matrix(1.11448, 0, 0, 1.11448, -163.656318, -496.086486)" fill-opacity="1" fill="#347571" fill-rule="nonzero" stroke-linejoin="round" d="M 278.969833 555.360356 L 295.969071 569.359317 " stroke="#000000" stroke-width="2" stroke-opacity="1" stroke-miterlimit="4"/><path stroke-linecap="round" transform="matrix(1.11448, 0, 0, 1.11448, -163.656318, -496.086486)" fill-opacity="1" fill="#347571" fill-rule="nonzero" stroke-linejoin="round" d="M 210.969374 552.360078 L 189.970933 565.360114 " stroke="#000000" stroke-width="2" stroke-opacity="1" stroke-miterlimit="4"/></svg>